<?xml version="1.0" encoding="utf-8"?><svg xmlns="http://www.w3.org/2000/svg" xmlns:xlink="http://www.w3.org/1999/xlink">

<symbol viewBox="0 0 47 20" id="arrow-left" xmlns="http://www.w3.org/2000/svg">
	<path d="M10 19.1L.9 10 10 .9l2.1 2.2-7 6.9 7 6.9z"/>
	<path d="M3 8.7h43.8v3H3z"/>
</symbol>
<symbol viewBox="0 0 46 20" id="arrow-right" xmlns="http://www.w3.org/2000/svg">
	<path d="M36.9 19.1l-2.2-2.2 7-6.9-7-6.9L36.9.9 46 10z"/>
	<path d="M0 8.7h43.8v3H0z"/>
</symbol>

<symbol viewBox="0 0 448 512" id="arrow-up" xmlns="http://www.w3.org/2000/svg">
	<path d="M34.9 289.5l-22.2-22.2c-9.4-9.4-9.4-24.6 0-33.9L207 39c9.4-9.4 24.6-9.4 33.9 0l194.3 194.3c9.4 9.4 9.4 24.6 0 33.9L413 289.4c-9.5 9.5-25 9.3-34.3-.4L264 168.6V456c0 13.3-10.7 24-24 24h-32c-13.3 0-24-10.7-24-24V168.6L69.2 289.1c-9.3 9.8-24.8 10-34.3.4z"/>
</symbol>
<symbol viewBox="0 0 448 512" id="arrow-down" xmlns="http://www.w3.org/2000/svg">
	<path d="M413.1 222.5l22.2 22.2c9.4 9.4 9.4 24.6 0 33.9L241 473c-9.4 9.4-24.6 9.4-33.9 0L12.7 278.6c-9.4-9.4-9.4-24.6 0-33.9l22.2-22.2c9.5-9.5 25-9.3 34.3.4L184 343.4V56c0-13.3 10.7-24 24-24h32c13.3 0 24 10.7 24 24v287.4l114.8-120.5c9.3-9.8 24.8-10 34.3-.4z"/>
</symbol>

<symbol viewBox="0 0 66 66" id="spinner" xmlns="http://www.w3.org/2000/svg">
	<circle stroke-width="6" stroke-linecap="round" cx="33" cy="33" r="30"></circle>
</symbol>

	<symbol viewBox="0 0 320 384" id="test" xmlns="http://www.w3.org/2000/svg">
		<path d="M64,341.333C64,364.907,83.093,384,106.667,384h170.667C300.907,384,320,364.907,320,341.333v-256H64V341.333z"/>
		<polygon points="266.667,21.333 245.333,0 138.667,0 117.333,21.333 42.667,21.333 42.667,64 341.333,64 341.333,21.333 			"/>
	</symbol>

<symbol viewBox="0 0 512 512" id="download" xmlns="http://www.w3.org/2000/svg">
	<path d="M466.6,180.6H346.8V0H166.2v180.6H45.4L256,391.2L466.6,180.6z M45.4,452.1V512h421.2v-59.9 H45.4z"/>
</symbol>

<symbol viewBox="0 0 512 512" id="delete" xmlns="http://www.w3.org/2000/svg">
	<path d="M85.3,455.4c0,31.4,26,56.6,56.6,56.6h227.3c31.4,0,56.6-26,56.6-56.6V114.1H85.3V455.4z M455.4,28.7h-99.7L327,0H185l-28.7,28.7H56.6v56.6h397.9V28.7H455.4z"/>
	 </symbol>

<symbol viewBox="0 0 100 100" id="external" xmlns="http://www.w3.org/2000/svg">
  <path d="M18.8,85.1h56l0,0c2.2,0,4-1.8,4-4v-32h-8v28h-48v-48h28v-8h-32l0,0c-2.2,0-4,1.8-4,4v56C14.8,83.3,16.6,85.1,18.8,85.1z"></path>
  <polygon points="45.7,48.7 51.3,54.3 77.2,28.5 77.2,37.2 85.2,37.2 85.2,14.9 62.8,14.9 62.8,22.9 71.5,22.9"></polygon>
</symbol>

<symbol viewBox="0 0 25 25" id="cog" xmlns="http://www.w3.org/2000/svg">
	<path d="M24.38,10.175l-2.231-0.268c-0.228-0.851-0.562-1.655-0.992-2.401l1.387-1.763c0.212-0.271,0.188-0.69-0.057-0.934
		l-2.299-2.3c-0.242-0.243-0.662-0.269-0.934-0.057l-1.766,1.389c-0.743-0.43-1.547-0.764-2.396-0.99L14.825,0.62
		C14.784,0.279,14.469,0,14.125,0h-3.252c-0.344,0-0.659,0.279-0.699,0.62L9.906,2.851c-0.85,0.227-1.655,0.562-2.398,0.991
		L5.743,2.455c-0.27-0.212-0.69-0.187-0.933,0.056L2.51,4.812C2.268,5.054,2.243,5.474,2.456,5.746L3.842,7.51
		c-0.43,0.744-0.764,1.549-0.991,2.4l-2.23,0.267C0.28,10.217,0,10.532,0,10.877v3.252c0,0.344,0.279,0.657,0.621,0.699l2.231,0.268
		c0.228,0.848,0.561,1.652,0.991,2.396l-1.386,1.766c-0.211,0.271-0.187,0.69,0.057,0.934l2.296,2.301
		c0.243,0.242,0.663,0.269,0.933,0.057l1.766-1.39c0.744,0.43,1.548,0.765,2.398,0.991l0.268,2.23
		c0.041,0.342,0.355,0.62,0.699,0.62h3.252c0.345,0,0.659-0.278,0.699-0.62l0.268-2.23c0.851-0.228,1.655-0.562,2.398-0.991
		l1.766,1.387c0.271,0.212,0.69,0.187,0.933-0.056l2.299-2.301c0.244-0.242,0.269-0.662,0.056-0.935l-1.388-1.764
		c0.431-0.744,0.764-1.548,0.992-2.397l2.23-0.268C24.721,14.785,25,14.473,25,14.127v-3.252
		C25.001,10.529,24.723,10.216,24.38,10.175z M12.501,18.75c-3.452,0-6.25-2.798-6.25-6.25s2.798-6.25,6.25-6.25
		s6.25,2.798,6.25,6.25S15.954,18.75,12.501,18.75z"/>
</symbol>

<symbol viewBox="0 0 24 24" id="help-circle" xmlns="http://www.w3.org/2000/svg">
	<path d="M0 0h24v24H0V0z" fill="none"/>
	<path d="M12 2C6.48 2 2 6.48 2 12s4.48 10 10 10 10-4.48 10-10S17.52 2 12 2zm0 18c-4.41 0-8-3.59-8-8s3.59-8 8-8 8 3.59 8 8-3.59 8-8 8zm-1-4h2v2h-2zm1.61-9.96c-2.06-.3-3.88.97-4.43 2.79-.18.58.26 1.17.87 1.17h.2c.41 0 .74-.29.88-.67.32-.89 1.27-1.5 2.3-1.28.95.2 1.65 1.13 1.57 2.1-.1 1.34-1.62 1.63-2.45 2.88 0 .01-.01.01-.01.02-.01.02-.02.03-.03.05-.09.15-.18.32-.25.5-.01.03-.03.05-.04.08-.01.02-.01.04-.02.07-.12.34-.2.75-.2 1.25h2c0-.42.11-.77.28-1.07.02-.03.03-.06.05-.09.08-.14.18-.27.2.39.01-.01.02-.03.03-.04.1-.12.21-.23.33-.34.96-.91 2.26-1.65 1.99-3.56-.24-1.74-1.61-3.21-3.35-3.47z"/>
</symbol>


<symbol viewBox="0 0 50 50" id="unity" xmlns="http://www.w3.org/2000/svg">
	<path d="M44.082 25.207l2.82-4.777a1 1 0 0 0 .043-.758l-5.586-16a1.002 1.002 0 0 0-1.18-.645l-16.417 4c-.313.078-.57.301-.692.602L21.324 12H16c-.277 0-.547.117-.734.32l-12 13a1 1 0 0 0 .043 1.403l12.586 12c.183.18.433.277.687.277h5.738l1.75 4.371a.998.998 0 0 0 .758.613l17.461 3a.998.998 0 0 0 1.145-.77l3.543-16.23a.993.993 0 0 0-.125-.734zM21.324 12l14.094-2.582L28 24H11.168zm1 27L11.168 28H28l8.75 13.168zm18.063-.102L32 26l7.332-14.582 4.75 13.793z"/>
</symbol>

<svg viewBox="0 0 50 50" id="unreal" xmlns="http://www.w3.org/2000/svg">
	<path d="M25 2C12.309 2 2 12.309 2 25s10.309 23 23 23 23-10.309 23-23S37.691 2 25 2zm0 2c11.61 0 21 9.39 21 21s-9.39 21-21 21S4 36.61 4 25 13.39 4 25 4zm-1.379 6.5C15.773 12.367 6.656 21.906 7.543 29.125c4.27-7.531 7.16-8.555 7.945-8.555.79 0 1.215.426 1.215 1.336V33.13c0 1.394-1.348 1.226-2.242 1.09C17.773 39.16 25.5 39.5 25.5 39.5l3.46-3.762 3.337 2.852c5.082-3.29 8.437-8.863 8.437-9.707-2.515 2.773-4.675 3.277-5.16 3.277-.484 0-1.273-.058-1.273-.726V18.12c0-1.156 3.18-4.95 4.183-6.226-6.613 1.734-9.16 5.039-9.16 5.039s-.89-.668-2.851-.668c.734.625 1.761 1.757 1.761 3.093v12.192s-2.187 1.578-3.46 1.578c-1.274 0-2.184-.543-2.184-1.516V17.051s-1.82 1.277-1.82-2.488c0-1.88 2.851-4.063 2.851-4.063z"/>
</svg>

<symbol viewBox="0 0 24 24" id="copy" xmlns="http://www.w3.org/2000/svg">
	<path d="M19 21H8V7h11m0-2H8a2 2 0 0 0-2 2v14a2 2 0 0 0 2 2h11a2 2 0 0 0 2-2V7a2 2 0 0 0-2-2m-3-4H4a2 2 0 0 0-2 2v14h2V3h12V1z"/>
</symbol>

<symbol viewBox="0 0 136.5 162" id="apple" xmlns="http://www.w3.org/2000/svg">
	<path d="M133.4 126.1c-2.4 5.7-5.4 10.9-8.7 15.7-4.6 6.5-8.3 11.1-11.2 13.6-4.5 4.1-9.3 6.2-14.4 6.4-3.7 0-8.1-1.1-13.3-3.2-5.2-2.1-10-3.2-14.3-3.2-4.6 0-9.5 1.1-14.7 3.2-5.3 2.1-9.5 3.2-12.7 3.4-4.9.2-9.8-2-14.7-6.5-3.1-2.7-7-7.4-11.7-14-5-7.1-9.2-15.3-12.4-24.7C1.8 106.7.1 96.9.1 87.4c0-10.9 2.3-20.2 7-28.1C10.8 53 15.7 48 21.9 44.4s12.8-5.5 19.9-5.6c3.9 0 9 1.2 15.4 3.6 6.4 2.4 10.4 3.6 12.2 3.6 1.3 0 5.9-1.4 13.6-4.2 7.3-2.6 13.4-3.7 18.4-3.3 13.6 1.1 23.9 6.5 30.7 16.2-12.2 7.4-18.2 17.7-18.1 31 .1 10.3 3.9 18.9 11.2 25.8 3.3 3.2 7.1 5.6 11.2 7.4-1.1 2.4-2 4.9-3 7.2zm-31.3-123c0 8.1-3 15.7-8.9 22.7-7.1 8.3-15.7 13.1-25.1 12.4-.1-1-.2-2-.2-3.1 0-7.8 3.4-16.1 9.4-22.9 3-3.4 6.8-6.3 11.4-8.6s9-3.5 13.1-3.7c.3 1.1.3 2.2.3 3.2z"/>
</symbol>
<symbol viewBox="0 0 18 18" id="calendar" xmlns="http://www.w3.org/2000/svg">
	<path d="M17.5 2H15V.5c0-.3-.2-.5-.5-.5h-3c-.3 0-.5.2-.5.5V2H7V.5c0-.3-.2-.5-.5-.5h-3c-.3 0-.5.2-.5.5V2H.5c-.3 0-.5.2-.5.5v15c0 .3.2.5.5.5h17c.3 0 .5-.2.5-.5v-15c0-.3-.2-.5-.5-.5zM12 1h2v3h-2V1zM4 1h2v3H4V1zM3 3v1.5c0 .3.2.5.5.5h3c.3 0 .5-.2.5-.5V3h4v1.5c0 .3.2.5.5.5h3c.3 0 .5-.2.5-.5V3h2v3H1V3h2zM1 17V7h16v10H1z"/>
</symbol>
<symbol viewBox="0 0 1200 1200" id="caret-down" xmlns="http://www.w3.org/2000/svg">
	<path d="M 0,250.81458 600,1200 1200,250.81458 H 0 z"/>
</symbol>
<symbol viewBox="0 0 6 13" id="caret-left" xmlns="http://www.w3.org/2000/svg">
	<path d="M5.5.5l-5 6 5 6z"/>
</symbol>
<symbol viewBox="0 0 12 12" id="caret-right" xmlns="http://www.w3.org/2000/svg">
	<path d="M 1,0 10,6 1,12 z"/>
</symbol>
<symbol viewBox="0 0 13 6" id="caret-up" xmlns="http://www.w3.org/2000/svg">
	<path d="M12.5 5.5l-6-5-6 5z"/>
</symbol>
<symbol viewBox="0 0 35 32" id="category" xmlns="http://www.w3.org/2000/svg">
	<path d="M34.9 16c0-.8-.4-1.4-1.1-1.8l-2.6-1.3 2.6-1.3c.7-.3 1.1-1 1.1-1.8s-.4-1.4-1.1-1.8L19.1.5C18 0 16.8 0 15.7.5L1.1 8C.4 8.4 0 9 0 9.8s.4 1.4 1.1 1.8l2.6 1.3-2.6 1.3c-.7.3-1.1 1-1.1 1.8s.4 1.4 1.1 1.8l2.6 1.3-2.6 1.3c-.7.3-1.1 1-1.1 1.8s.4 1.4 1.1 1.8l14.7 7.5c.5.3 1.1.4 1.7.4s1.2-.1 1.7-.4L33.9 24c.7-.3 1.1-1 1.1-1.8s-.4-1.4-1.1-1.8l-2.7-1.3 2.6-1.3c.7-.4 1.1-1.1 1.1-1.8zM1.8 10.1c-.2-.1-.2-.2-.2-.3s0-.2.2-.3L16.5 2c.3-.2.7-.2 1-.2s.7.1 1 .2l14.7 7.5c.2.1.2.2.2.3s0 .2-.2.3l-14.7 7.5c-.6.3-1.4.3-2 0L1.8 10.1zm31.3 11.8c.2.1.2.2.2.3 0 .1 0 .2-.2.3L18.4 30c-.6.3-1.4.3-2 0L1.8 22.5c-.2-.1-.2-.2-.2-.3 0-.1 0-.2.2-.3L5.5 20l10.3 5.3c.5.3 1.1.4 1.7.4s1.2-.1 1.7-.4L29.5 20l3.6 1.9zm0-5.6l-14.7 7.5c-.6.3-1.4.3-2 0L1.8 16.3c-.2-.1-.2-.2-.2-.3 0-.1 0-.2.2-.3l3.7-1.9 10.2 5.3c.5.3 1.1.4 1.7.4s1.2-.1 1.7-.4l10.3-5.3 3.7 1.9c.2.1.2.2.2.3 0 .1-.1.2-.2.3z"/>
</symbol>
<symbol viewBox="0 0 13 17" id="change" xmlns="http://www.w3.org/2000/svg">
	<path d="M9.5 2.8H5.1l1.4-1.2c.3-.3.4-.7.1-1.1C6.3.2 5.8.2 5.5.4L1.8 3.5l3.7 3.1c.2.1.3.2.5.2s.4-.1.6-.3c.3-.3.2-.8-.1-1.1L5.1 4.3h4.4c.7 0 1.3.5 1.3 1.3v2c0 .4.3.8.8.8s.8-.3.8-.8v-2C12.3 4 11 2.8 9.5 2.8zM6.4 10.5c-.3.3-.2.8.1 1.1l1.4 1.2H3.5c-.7 0-1.2-.6-1.2-1.3v-2c0-.4-.3-.8-.8-.8s-.7.4-.7.8v2c0 1.5 1.2 2.8 2.7 2.8h4.4l-1.4 1.2c-.3.3-.4.7-.1 1.1.1.2.4.3.6.3s.3-.1.5-.2l3.7-3.1-3.7-3.1c-.3-.3-.8-.3-1.1 0z"/>
</symbol>
<symbol viewBox="0 0 40 35" id="chat" xmlns="http://www.w3.org/2000/svg">
	<path d="M37.5 16.5c-1.3 0-2.4 1.1-2.4 2.4 0 1 .6 1.9 1.5 2.3v4.2c0 .1-.1.3-.3.3H12.8l-4 4v-4H2.3c-.1 0-.3-.1-.3-.3V2.8c0-.1.1-.3.3-.3h34c.1 0 .3.1.3.3v5.8h2V2.8c0-1.2-1-2.3-2.3-2.3h-34C1.1.5 0 1.5 0 2.8v22.7c0 1.2 1 2.3 2.3 2.3h4.5v6.8l2-2 4.8-4.8h22.7c1.2 0 2.3-1 2.3-2.3v-4.3c.8-.4 1.3-1.2 1.3-2.2 0-1.4-1.1-2.5-2.4-2.5z"/>
</symbol>
<symbol viewBox="0 0 24 18" id="check" xmlns="http://www.w3.org/2000/svg">
	<path d="M8.3 17.6L0 9.3l1.6-1.4 6.7 6.7L22.6.4 24 1.9z"/>
</symbol>
<symbol viewBox="0 0 11 9" id="check-bold" xmlns="http://www.w3.org/2000/svg">
	<path d="M4.3 8.6L0 4.2l1.5-1.5 2.8 2.7 5.2-5L11 1.9z"/>
</symbol>
<symbol viewBox="0 0 24 16" id="check-thin" xmlns="http://www.w3.org/2000/svg">
	<path d="M8.8 16L.3 7.5l1.1-1 7.4 7.4L22.6 0l1.1 1.1z"/>
</symbol>
<symbol viewBox="0 0 12 8" id="chevron-down" xmlns="http://www.w3.org/2000/svg">
	<path d="M5.9 7.3L.3 1.7 1.7.3l4.2 4.2L10.1.3l1.4 1.4z"/>
</symbol>
<symbol viewBox="0 0 9 14" id="chevron-left" xmlns="http://www.w3.org/2000/svg">
	<path d="M7.5 0l1.1 1.3L2.8 7l5.8 5.8L7.5 14 .4 7z"/>
</symbol>
<symbol viewBox="0 0 9 14" id="chevron-right" xmlns="http://www.w3.org/2000/svg">
	<path d="M8.6 7l-7.1 7-1.1-1.2L6.2 7 .4 1.3 1.5 0z"/>
</symbol>
<symbol viewBox="0 0 14 9" id="chevron-up" xmlns="http://www.w3.org/2000/svg">
	<path d="M14 7.5l-1.3 1.1L7 2.8 1.2 8.6 0 7.5 7 .4z"/>
</symbol>
<symbol viewBox="0 0 34 34" id="circles" xmlns="http://www.w3.org/2000/svg">
	<path d="M17 34c-5.3 0-10.3-2.4-13.5-6.7l1.6-1.2C7.9 29.8 12.3 32 17 32c.7 0 1.4-.1 2.1-.2l.3 2c-.8.1-1.6.2-2.4.2zm9.3-2.8l-1.1-1.7C29.5 26.8 32 22.1 32 17v-1.1l2-.1V17c0 5.7-2.9 11.1-7.7 14.2zM.4 20.6C.1 19.4 0 18.2 0 17c0-4.9 2.1-9.5 5.8-12.7l1.3 1.5C3.9 8.6 2 12.7 2 17c0 1.1.1 2.1.3 3.2l-1.9.4zM30.1 9.7C27.5 4.9 22.4 2 17 2c-1.4 0-2.9.2-4.2.6L12.2.7C13.8.2 15.4 0 17 0c6.2 0 11.8 3.3 14.8 8.7l-1.7 1z"/>
</symbol>
<symbol viewBox="0 0 17 17" id="clock" xmlns="http://www.w3.org/2000/svg">
	<path d="M8.5 17C3.8 17 0 13.2 0 8.5S3.8 0 8.5 0 17 3.8 17 8.5 13.2 17 8.5 17zm0-15.9c-4.1 0-7.4 3.3-7.4 7.4s3.3 7.4 7.4 7.4 7.4-3.3 7.4-7.4-3.3-7.4-7.4-7.4z"/>
	<path d="M10.2 11.6L8 9.2V5.3h1v3.5l2 1.9z"/>
</symbol>
<symbol viewBox="0 0 16 16" id="clock-bold" xmlns="http://www.w3.org/2000/svg">
	<path d="M9.7 11.6L7 9.6V5h2v3.6l1.9 1.4z"/>
	<path d="M8 16c-4.4 0-8-3.6-8-8s3.6-8 8-8 8 3.6 8 8-3.6 8-8 8zM8 2C4.7 2 2 4.7 2 8s2.7 6 6 6 6-2.7 6-6-2.7-6-6-6z"/>
</symbol>
<symbol viewBox="0 0 16 16" id="clone" xmlns="http://www.w3.org/2000/svg">
	<path d="M16 11.8h-2.8v-1H15V1H5.2v1.8h-1V0H16z"/>
	<path d="M11 5v10H1V5h10m1-1H0v12h12V4z"/>
</symbol>
<symbol viewBox="0 0 22 15" id="cloud" xmlns="http://www.w3.org/2000/svg">
	<path d="M11.8 13.5H18.5c1 0 1.9-.8 1.9-1.8 0-.7-.4-1.3-1-1.6l-.9-.5.1-1V8c0-3.6-2.8-6.4-6.3-6.4-3.1 0-5.7 2.3-6.2 5.4l-.2 1.3-1.4-.1h-.2c-1.5 0-2.7 1.2-2.7 2.7 0 1.5 1.2 2.7 2.7 2.7h7.5zm6.6 1.5H4.3C2 15 .1 13.1.1 10.8.1 8.5 2 6.6 4.3 6.6h.3C5.2 2.9 8.4 0 12.3 0c4.3 0 7.8 3.6 7.8 7.9v.8c1.1.6 1.8 1.7 1.8 2.9 0 1.8-1.5 3.3-3.3 3.3-.1.1-.2.1-.2.1z"/>
</symbol>
<symbol viewBox="0 0 19 14" id="clouds" xmlns="http://www.w3.org/2000/svg">
	<path d="M2.4 11.2C1.1 10.6.3 9.3.3 7.8c0-1.4.8-2.7 2.1-3.4C2.8 1.9 5 0 7.6 0c1.6 0 3.1.8 4.1 2 3.3.1 5.9 2.9 5.9 6.2v.1c.7.6 1.2 1.5 1.2 2.4 0 1.7-1.4 3.1-3.1 3.1H5.9c-1.7.1-3.2-1-3.5-2.6zm0-1.8C2.8 7.9 4 6.9 5.5 6.7 6 4.6 7.7 2.9 9.7 2.3c-.6-.5-1.4-.7-2.2-.7-2 0-3.6 1.5-3.7 3.5v.5l-.5.1c-.9.3-1.5 1.1-1.5 2.1 0 .6.2 1.2.6 1.6zm8.6 3H15.7c.9 0 1.6-.7 1.6-1.6 0-.6-.3-1.1-.8-1.4l-.5-.1v-.5-.5c0-2.6-2.1-4.7-4.6-4.7-2.3 0-4.2 1.7-4.6 4l-.1.6H6h-.1c-1.2 0-2.1 1-2.1 2.1s1 2.1 2.1 2.1H11z"/>
</symbol>
<symbol viewBox="0 0 10 7.39" id="discord" xmlns="http://www.w3.org/2000/svg">
	<path d="M8.61.82A4.74 4.74 0 0 0 6.32 0a.2.2 0 0 0-.21.12.78.78 0 0 0-.11.19A5.28 5.28 0 0 1 8 1a.21.21 0 0 1 0 .3.2.2 0 0 1-.18.1.27.27 0 0 1-.12 0 5.57 5.57 0 0 0-5.44 0A.22.22 0 0 1 2 1.3a.21.21 0 0 1 .05-.3A5.48 5.48 0 0 1 4 .31a.78.78 0 0 0-.11-.18.2.2 0 0 0-.21-.13 4.79 4.79 0 0 0-2.31.83A10 10 0 0 0 0 5.87.2.2 0 0 0 0 6a3.78 3.78 0 0 0 2.78 1.4.24.24 0 0 0 .22-.09l.4-.55A4.2 4.2 0 0 1 1.71 6 .223.223 0 1 1 2 5.66a4.87 4.87 0 0 0 3 .87 4.8 4.8 0 0 0 3-.87.223.223 0 1 1 .29.34 4.2 4.2 0 0 1-1.65.78l.4.55a.24.24 0 0 0 .17.09A3.78 3.78 0 0 0 10 6a.2.2 0 0 0 0-.11A9.82 9.82 0 0 0 8.61.82zM3.59 5a.81.81 0 0 1-.76-.87.81.81 0 0 1 .76-.86.81.81 0 0 1 .76.86.81.81 0 0 1-.76.87zm2.82 0a.81.81 0 0 1-.76-.87.81.81 0 0 1 .76-.86.81.81 0 0 1 .76.86.81.81 0 0 1-.76.87z"/>
</symbol>
<symbol viewBox="0 0 16 2" id="dots" xmlns="http://www.w3.org/2000/svg">
	<path d="M1 0c.6 0 1 .4 1 1s-.4 1-1 1-1-.4-1-1 .4-1 1-1zM8 0c.6 0 1 .4 1 1s-.4 1-1 1-1-.4-1-1 .4-1 1-1zM15 0c.6 0 1 .4 1 1s-.4 1-1 1-1-.4-1-1 .4-1 1-1z"/>
</symbol>
<symbol viewBox="0 0 18 18" id="event" xmlns="http://www.w3.org/2000/svg">
	<path d="M17 2h-2V1c0-.6-.4-1-1-1s-1 .4-1 1v1h-3V1c0-.6-.4-1-1-1S8 .4 8 1v1H5V1c0-.6-.4-1-1-1S3 .4 3 1v1H1c-.6 0-1 .4-1 1v14c0 .6.4 1 1 1h16c.5 0 1-.4 1-1V3c0-.6-.4-1-1-1zm-1 14H2V8h14v8zm0-10H2V4h14v2z"/>
</symbol>
<symbol viewBox="0 0 4 20" id="exclamation" xmlns="http://www.w3.org/2000/svg">
	<path d="M3.3 13.8H.6L.3.3h3.4l-.4 13.5zM.2 18c0-.2 0-.5.1-.7.1-.2.2-.4.4-.6s.3-.3.6-.4.5-.1.8-.1.5 0 .8.1.4.2.6.4.3.3.4.6c.1.2.1.4.1.7 0 .5-.2.9-.5 1.2s-.9.5-1.5.5-1-.2-1.3-.5-.5-.7-.5-1.2z"/>
</symbol>
<symbol viewBox="0 0 16 17" id="exhibition" xmlns="http://www.w3.org/2000/svg">
	<path d="M12.4 2H8.2V.4C8.2.2 8 0 7.8 0s-.4.2-.4.4V2h-4c-1.7 0-3 1.3-3 3v5c0 1.7 1.3 3 3 3H6l-1 2.9c-.1.2 0 .4.3.5h.1c.2 0 .3-.1.4-.3l1-3V13h.6v3c0 .2.2.4.4.4s.4-.2.4-.4v-3H9v.1l1 3c.1.2.2.3.4.3h.1c.2-.1.3-.3.3-.5l-1-2.9h2.6c1.7 0 3-1.3 3-3V5c0-1.7-1.3-3-3-3zm2.2 8c0 1.2-1 2.2-2.2 2.2h-9c-1.2 0-2.2-1-2.2-2.2V5c0-1.2 1-2.2 2.2-2.2h9c1.2 0 2.2 1 2.2 2.2v5z"/>
</symbol>
<symbol viewBox="0 0 10 22" id="facebook" xmlns="http://www.w3.org/2000/svg">
	<path d="M6.6 22V11h3l.4-3.8H6.6V5.3c0-1 .1-1.5 1.5-1.5H10V0H7C3.5 0 2.2 1.8 2.2 4.9v2.3H0V11h2.2v11h4.4z"/>
</symbol>
<symbol viewBox="0 0 437.25 437.25" id="feed" xmlns="http://www.w3.org/2000/svg">
	<path d="M1 400.76c0 20.08 16.26 36.34 36.34 36.34h363.42c20.08 0 36.34-16.26 36.34-36.34V37.34C437.1 17.26 420.84 1 400.76 1H37.34C17.26 1 1 17.26 1 37.34v363.42zm354.33-77.23c0 12.54-10.18 22.72-22.71 22.72-12.54 0-22.72-10.18-22.72-22.72 0-102.84-83.41-186.25-186.25-186.25-12.54 0-22.71-10.18-22.71-22.71 0-12.54 10.18-22.71 22.71-22.71 67.41 0 122.74 23.26 166.17 66.69 44.52 44.51 65.51 99.75 65.51 164.98zm-81.77 0c0 12.54-10.17 22.72-22.71 22.72-12.54 0-22.71-10.18-22.71-22.72 0-57.69-46.79-104.48-104.48-104.48-12.54 0-22.71-10.18-22.71-22.71 0-12.54 10.18-22.71 22.71-22.71 82.76-.01 149.9 67.14 149.9 149.9zm-172.62-18.17c0-22.63 18.26-40.89 40.88-40.89s40.88 18.26 40.88 40.89c0 22.62-18.26 40.88-40.88 40.88s-40.88-18.25-40.88-40.88z"/>
</symbol>
<symbol viewBox="0 0 15 19" id="file" xmlns="http://www.w3.org/2000/svg">
	<path d="M2 17V2h6v4c0 .6.4 1 1 1h4v10H2zM12.2 5H10V2.8L12.2 5zM15 6c0-.6-.3-1.3-.7-1.7L10.7.7C10.3.3 9.6 0 9 0H1C.5 0 0 .4 0 1v17c0 .5.5 1 1 1h13c.6 0 1-.5 1-1V6z"/>
</symbol>
<symbol viewBox="0 0 18 17" id="filter" xmlns="http://www.w3.org/2000/svg">
	<path d="M10.2 17H7.8c-1 0-1.8-.8-1.8-1.8v-4.6L.6 5.2C.3 4.9.1 4.5.1 4V1.8C.1.8.9 0 1.9 0h14.2c1 0 1.8.8 1.8 1.8V4c0 .5-.2.9-.5 1.3L12 10.6v4.6c0 1-.8 1.8-1.8 1.8zM8 15h2V9.8l5.9-5.9V2H2.1v1.9L8 9.8V15zM2 3.8zM16.1 2z"/>
</symbol>
<symbol viewBox="0 0 12 15" id="filter-thin" xmlns="http://www.w3.org/2000/svg">
	<path d="M9.6 1.1L6.8 5.6l-.2.2V12.2l-1.2.8V5.8l-.2-.4L2.4 1h7.1m2.1-1H.4l3.9 6.1V15l3.3-2.2V6.1l4-6.1z"/>
</symbol>
<symbol viewBox="0 0 23 15" id="font" xmlns="http://www.w3.org/2000/svg">
	<path d="M9.9 11.6H4.5L3.3 15H.9L6.1.8h2.3L13.5 15h-2.4l-1.2-3.4zM5.1 9.7h4.2l-2.1-6-2.1 6zM20 12.8h-3.6l-.7 2.2h-1.6l3.4-9.2H19l3.4 9.2h-1.6l-.8-2.2zm-3.1-1.3h2.7l-1.3-3.9-1.4 3.9z"/>
</symbol>
<symbol viewBox="0 0 17 20" id="github" xmlns="http://www.w3.org/2000/svg">
	<path d="M15.6 3.1c.1-.5.1-1 .1-1.6-.1-.6-.2-1.1-.3-1.5-.9 0-1.6.2-2.1.5-.6.3-1 .5-1.3.7-2.1-.5-4.1-.4-6.1.1C4.9.5 3.8.1 2.6 0c-.5 1.2-.5 2.3-.2 3.3-.4.5-.8 1-1 1.6-.3.9-.4 1.9-.3 3s.5 2 1.1 2.7c.5.5 1.1.9 1.9 1.2s1.8.5 3.1.7c-.4.2-.7.3-.8.3s-.3.3-.4.5c-.2.2-.3.4-.4.7-1 .7-1.9.6-2.9-.2-.2-.2-.5-.4-.8-.8-.3-.4-.6-.7-.9-.8 0 0-.2-.1-.4-.1s-.4 0-.6.2c-.1.1-.1.2 0 .2.7.6 1.2 1.1 1.4 1.5.3.6.6 1 .9 1.3 1 .7 2.1.9 3.1.5v1.3c0 .7 0 1.1-.1 1.2-.1.2-.2.3-.3.5l-.2.2c-.1.1-.2 0-.2.1-.1.1-.1.1 0 .2 0 .1.2.2.5.2.7 0 1.2-.2 1.6-.7.1-.2.2-.4.2-.7v-2.8c0-.3.1-.5.2-.7.1-.1.3-.2.4-.3V18c0 .3 0 .6-.1.8s-.1.4-.1.5c-.2.3-.3.5-.3.6 0 0 .1.1.2.1.7 0 1.2-.3 1.5-.9.2-.4.3-.9.3-1.3v-3.6h.8v3.6c0 .5.1.9.3 1.3.2.4.5.7 1 .8.2.1.4.1.5.1.1 0 .1 0 .1-.1 0-.2-.1-.4-.3-.6-.2-.2-.2-.6-.2-1.3v-3.6c.2 0 .3.1.5.3.2.1.2.4.2.7v2.8c0 .3.1.5.2.7.4.5.9.7 1.6.7.3 0 .4-.1.5-.2 0-.1 0-.2-.1-.3-.1-.1-.3-.2-.4-.3-.2-.1-.3-.3-.4-.5l-.1-1.8v-1.8c-.1-.6-.2-1.1-.5-1.4-.3-.3-.7-.6-1.2-.8 1.2-.1 2.2-.3 2.9-.6 1.1-.5 1.8-1.2 2.3-2 .1-.9.3-1.9.3-3.1 0-1.5-.5-2.8-1.4-3.7z"/>
</symbol>
<symbol viewBox="0 0 9 9.6" id="google-play" xmlns="http://www.w3.org/2000/svg">
	<path d="M8.7 5.2s-.7.4-1.8 1L5.5 4.8l1.4-1.4c1 .6 1.8 1 1.8 1s.3.2.3.4c-.1.3-.3.4-.3.4zm-3.4-.6L.7 0c.1 0 .2.1.4.1.6.3 3.5 2 5.6 3.1L5.3 4.6zm-5.1 5C0 9.4 0 9.1 0 9.1V.6S0 .3.2.1L5 4.9.2 9.6zM5.3 5l1.3 1.3C4.5 7.5 1.6 9.1 1 9.4c-.2.1-.3.1-.4.1L5.3 5z"/>
</symbol>
<symbol viewBox="0 0 16 15" id="heart" xmlns="http://www.w3.org/2000/svg">
	<path d="M14.7 1.8C12.9 0 10 0 8.3 1.8L8 2l-.3-.2C6 0 3.1 0 1.3 1.8s-1.8 4.6 0 6.4l6.2 6.2c.1.1.3.2.4.2.2 0 .3-.1.4-.2l6.2-6.2c1.9-1.8 1.9-4.7.2-6.4z"/>
</symbol>
<symbol viewBox="0 0 22 19" id="heart-o" xmlns="http://www.w3.org/2000/svg">
	<path d="M11 19c-.4 0-.7-.1-1-.4l-.1-.1-7.7-7.7c-2.4-2.4-2.4-6.5 0-9C3.5.6 5 0 6.7 0 8.3 0 9.9.6 11 1.7c2.4-2.2 6.3-2.2 8.8.2 2.4 2.4 2.4 6.5 0 9L12 18.6c-.3.3-.6.4-1 .4zM6.7 1.6c-1.3 0-2.4.5-3.4 1.4-1.8 1.8-1.8 4.9 0 6.8l7.7 7.7 7.8-7.7c1.8-1.8 1.8-4.9 0-6.8C17 1.2 13.9 1.2 12 3l-1 .8-.9-.9C9.2 2.1 8 1.6 6.7 1.6z"/>
</symbol>
<symbol viewBox="0 0 22 19" id="home" xmlns="http://www.w3.org/2000/svg">
	<path d="M22 8.4L11 .1 0 8.4 1.3 10l1.4-1v7.8c0 1.1.9 2.1 2.1 2.1h3.1c1.1 0 2.1-.9 2.1-2.1v-3.7h2v3.7c0 1.1.9 2.1 2.1 2.1h3.1c1.1 0 2.1-.9 2.1-2.1V8.9l1.5 1.1L22 8.4zm-4.8-.9v9.4h-3.1v-5.8H7.8v5.8H4.7V7.5L11 2.7l6.2 4.8z"/>
</symbol>
<symbol viewBox="0 0 11 20" id="hourglass" xmlns="http://www.w3.org/2000/svg">
	<path d="M2.2 6.6c.1.1.1.2.2.2l3.1 2.3 3.1-2.3c.1 0 .1-.1.2-.2l-3.2.9h-.3l-3.1-.9zM2 5.5h.1l3.4 1 3.4-1H9V1H2v4.5zm7 12h-.1l-3.4-1-3.4 1H2V19h7v-1.5zm0-1V14c0-.2-.2-.7-.4-.8l-3.1-2.3-3.1 2.3c-.2.1-.4.6-.4.8v2.5l3.4-1h.3l3.3 1zM1 19v-5c0-.6.4-1.3.8-1.6l2.4-1.8.2-.2.6-.4-.6-.4-.2-.2-2.4-1.8C1.4 7.3 1 6.6 1 6V1H.5C.2 1 0 .8 0 .5S.2 0 .5 0h10c.3 0 .5.2.5.5s-.2.5-.5.5H10v5c0 .6-.4 1.3-.8 1.6L6.8 9.4l-.2.2-.6.4.6.4.2.2 2.4 1.8c.4.3.8 1 .8 1.6v5h.5c.3 0 .5.2.5.5s-.2.5-.5.5H.5c-.3 0-.5-.2-.5-.5s.2-.5.5-.5H1z"/>
</symbol>
<symbol viewBox="0 0 39 38" id="ico" xmlns="http://www.w3.org/2000/svg">
	<path d="M25.8 4.8c.1-1.1.2-2.2.2-3.4v-.1c3.2 1.2 5.9 3.3 8 6 .5 3.4.1 6.8-1.3 9.8-.5 1.1-1.1 2.1-1.8 3-.7.9-1.5 1.8-2.4 2.6-.9.8-1.8 1.5-2.8 2.2-.2.1-.4.3-.6.4-1.6-.2-3.1-.4-4.7-.6l-1.8-.3-.9-.2c-.1 0-.2 0-.3-.1l.8-.8c.8-.8 1.5-1.7 2.2-2.6.7-.9 1.3-1.9 1.8-2.9 1.1-2 1.9-4.2 2.5-6.4.6-2 1-4.3 1.1-6.6zM8 28.7l-1.5.6c-1 .3-1.9.6-2.9.8-2-2.8-3.2-6-3.5-9.6l.4.2 1.7.8c.6.3 1.2.5 1.7.7l.9.4.9.3 1.8.6 1.8.6c.6.2 1.2.4 1.8.5l.9.2.5.1.5.1 1.2.3c-.5.4-1.1.8-1.7 1.2-.9.6-1.8 1.1-2.8 1.6l-.7.3c-.5.1-.8.2-1 .3zM.8 17.8l-.8-.4C.9 7.6 9 0 19 0c1.3 0 2.6.1 3.9.4 0 .4.1.8.1 1.1.1 1.1.1 2.1.1 3.2 0 2.1-.2 4.2-.7 6.3-.4 2.1-1 4.1-1.9 6-.4 1-.9 1.9-1.5 2.8-.6.9-1.2 1.7-1.9 2.5-.4.5-.9 1-1.4 1.4-.2-.1-.4-.1-.7-.2l-1.8-.5h-.3l-.4-.1-.9-.3c-.6-.2-1.2-.4-1.7-.6l-1.7-.6-1.7-.7c-.3-.1-.6-.2-.8-.4l-.8-.4c-.5-.3-1.1-.5-1.6-.8l-1.6-.9-.5-.2c-.1 0-.3-.1-.4-.2zm17.5 8.3c.6.1 1.2.2 1.9.2 1 .1 1.9.2 2.9.3-.2.1-.3.2-.5.3-4.3 2.2-9 3.5-13.8 4-.3 0-.6.1-.9.1-.3 0-.6.1-.9.1-.6.1-1.2.1-1.8.1h-.6c-.2-.2-.3-.4-.5-.6.9-.2 1.8-.4 2.8-.6.5-.2 1.1-.3 1.6-.5.3-.1.5-.2.8-.3l.8-.3c1-.4 2.1-.9 3-1.4 1-.6 1.9-1.2 2.8-1.8.3 0 .5.1.8.1.3.1.6.1.9.2l.7.1zm9.3.7c2.5 0 5-.1 7.4-.3.5 0 1-.1 1.4-.1C33.6 33.2 26.9 38 19 38c-4.3 0-8.2-1.4-11.4-3.8.5 0 1-.1 1.5-.2 1.3-.1 2.6-.4 3.8-.7 1.3-.3 2.5-.6 3.8-1 .6-.2 1.2-.4 1.9-.6.6-.2 1.2-.5 1.8-.7.6-.3 1.2-.5 1.8-.8.6-.3 1.2-.6 1.7-.9 1.1-.7 2.2-1.4 3.3-2.2l.3-.3h.1zM35.3 14c.2-1.3.2-2.6 0-3.9 0-.3-.1-.6-.1-1C37 12 38 15.4 38 19c0 2.3-.4 4.6-1.2 6.7-.6 0-1.2.1-1.8.1-2.1.1-4.1.1-6.2-.1.4-.4.9-.8 1.3-1.2.9-.9 1.8-2 2.5-3.1s1.3-2.3 1.8-3.6c.4-1.2.7-2.5.9-3.8zM36.8 1.7v.8h.3c.2 0 .5-.2.5-.4s-.2-.4-.5-.4h-.3zm-.3 1.8v-2h.6c.6 0 .7.3.7.6s-.2.5-.5.6l.7.8h-.3l-.6-.8h-.3v.8h-.3zm.7.4c.8 0 1.4-.6 1.4-1.4 0-.8-.6-1.4-1.4-1.4-.8 0-1.4.6-1.4 1.4 0 .8.6 1.4 1.4 1.4zm0-3.1c.9 0 1.7.8 1.7 1.7 0 .9-.8 1.7-1.7 1.7-.9 0-1.7-.7-1.7-1.7 0-.9.7-1.7 1.7-1.7z"/>
</symbol>
<symbol viewBox="0 0 1000 1000" id="info-circle" xmlns="http://www.w3.org/2000/svg">
	<path d="M500,10C229.3,10,10,229.3,10,500c0,270.6,219.3,490,490,490s490-219.4,490-490C990,229.3,770.8,10,500,10z M500,910.1C273.5,910.1,89.9,726.5,89.9,500C89.9,273.4,273.5,89.8,500,89.8c226.5,0,410.1,183.7,410.1,410.2C910.2,726.5,726.5,910.1,500,910.1z"/><polygon points="552.1,606 572,195.8 428.9,195.8 448.9,606 "/><path d="M500.5,651.2c-47.9,0-81.5,33.5-81.5,82.5c0,47.1,32.6,82.4,79.6,82.4h1.9c48.9,0,80.6-35.3,80.6-82.4C580.1,684.7,548.4,651.2,500.5,651.2z"/>
</symbol>
<symbol viewBox="0 0 17 17" id="instagram" xmlns="http://www.w3.org/2000/svg">
	<path d="M1.6 5.3v6.4c0 2 1.7 3.7 3.7 3.7h6.4c2 0 3.7-1.7 3.7-3.7V5.3c0-2-1.7-3.7-3.7-3.7H5.3c-2 0-3.7 1.7-3.7 3.7zM0 5.3C0 2.3 2.3 0 5.3 0h6.4c3 0 5.3 2.3 5.3 5.3v6.4c0 3-2.3 5.3-5.3 5.3H5.3c-3 0-5.3-2.3-5.3-5.3V5.3z"/>
	<path d="M8.5 11C9.9 11 11 9.9 11 8.5S9.9 6 8.5 6 6 7.1 6 8.5 7.1 11 8.5 11zm0 1.5c-2.2 0-4-1.8-4-4s1.8-4 4-4 4 1.8 4 4-1.8 4-4 4zM13.5 4.5c0 .6-.4 1-1 1s-1-.4-1-1 .4-1 1-1 1 .4 1 1z"/>
</symbol>
<symbol viewBox="0 0 13 13" id="italic" xmlns="http://www.w3.org/2000/svg">
	<path d="M4.7.8h1.5c.4 0 .6.2.5.6L3.8 11.6c-.1.4-.5.6-.8.6H1.7l-.2.8h6.7l.2-.8H6.8c-.4 0-.6-.2-.5-.6L9 1.4c.1-.4.5-.6.8-.6h1.4l.3-.8H4.9l-.2.8z"/>
</symbol>
<symbol viewBox="0 0 18 17" id="job" xmlns="http://www.w3.org/2000/svg">
	<path d="M16 3h-4V1c0-.6-.4-1-1-1H7c-.6 0-1 .4-1 1v2H2C.9 3 0 3.9 0 5v6c0 .7.4 1.4 1 1.7V15c0 1.1.9 2 2 2h12c1.1 0 2-.9 2-2v-2.3c.6-.3 1-1 1-1.7V5c0-1.1-.9-2-2-2zM8 2h2v1H8V2zm7 13H3v-2h12v2zm1-4H2V5h14v6z"/>
</symbol>
<symbol viewBox="0 0 18 15" id="link" xmlns="http://www.w3.org/2000/svg">
	<path d="M5.3 14.4c-.8 0-1.5-.3-2-.8l-1.9-1.9c-.5-.5-.8-1.2-.8-2s.3-1.5.8-2l3.9-3.9c1.1-1.1 2.9-1.1 4 0l1.9 1.9c.8.8 1 1.9.7 3-.1.1-.3.5-.6 1l-.8-.7c.2-.3.4-.7.5-.8.2-.7.1-1.4-.4-1.9l-2-1.9c-.7-.7-1.9-.7-2.6 0L2.1 8.3c-.4.3-.6.8-.6 1.3s.2 1 .5 1.3l2 1.9c.7.7 1.9.7 2.6 0l1.3-1.3.7.7-1.3 1.3c-.5.6-1.2.9-2 .9z"/>
	<path d="M11.2 12.2c-.8 0-1.5-.3-2-.8l-2-2c-.8-.8-1-1.9-.7-3l.5-.7.9.5-.4.6c-.2.6 0 1.4.5 1.9l1.9 1.9c.7.7 1.9.7 2.6 0l3.9-3.9c.3-.3.5-.8.5-1.3s-.2-1-.5-1.3l-1.9-1.9c-.7-.7-1.9-.7-2.6 0L11 3l-.7-.7.9-.9c1.1-1.1 2.9-1.1 4 0l1.9 1.9c.5.5.8 1.2.8 2s-.3 1.5-.8 2l-3.9 3.9c-.5.7-1.3 1-2 1z"/>
</symbol>
<symbol viewBox="0 0 15 14" id="linkedin" xmlns="http://www.w3.org/2000/svg">
	<path d="M14.7 8.6V14h-3.2V9c0-1.3-.5-2.1-1.6-2.1-.8-.1-1.3.5-1.5 1.1-.1.2-.1.4-.1.7V14H5.1V4.6h3.2v1.3c.4-.6 1.2-1.6 2.8-1.6 2.1 0 3.6 1.4 3.6 4.3zM1.8 0C.7 0 0 .7 0 1.6c0 .9.7 1.6 1.7 1.6 1.1 0 1.8-.7 1.8-1.6C3.5.7 2.9 0 1.8 0zM.2 14h3.2V4.6H.2V14z"/>
</symbol>
<symbol viewBox="0 0 17 61" id="long-arrow-down" xmlns="http://www.w3.org/2000/svg">
	<path d="M8 0v58.9L1.4 51l-.7.6L8.5 61l7.8-9.4-.7-.6L9 58.9V0z"/>
</symbol>
<symbol viewBox="0 0 61 17" id="long-arrow-left" xmlns="http://www.w3.org/2000/svg">
	<path d="M61 8H2.1L10 1.4 9.4.7 0 8.5l9.4 7.8.6-.7L2.1 9H61z"/>
</symbol>
<symbol viewBox="0 0 61 17" id="long-arrow-right" xmlns="http://www.w3.org/2000/svg">
	<path d="M0 9h58.9L51 15.6l.6.7L61 8.5 51.6.7l-.6.7L58.9 8H0z"/>
</symbol>
<symbol viewBox="0 0 17 61" id="long-arrow-up" xmlns="http://www.w3.org/2000/svg">
	<path d="M9 61V2.1l6.6 7.9.7-.6L8.5 0 .7 9.4l.7.6L8 2.1V61z"/>
</symbol>
<symbol viewBox="0 0 12 14" id="map-marker" xmlns="http://www.w3.org/2000/svg">
	<path d="M6 14L1.8 9.4c-2-2.2-2-5.4 0-7.6 2.1-2.3 5.7-2.5 8-.4s2.5 5.7.4 8L6 14zM6 1.1h-.2c-1.2.1-2.4.6-3.2 1.4C.9 4.3.9 7 2.6 8.8L6 12.5l3.4-3.7C11.1 6.9 11 4 9.1 2.2 8.3 1.5 7.2 1.1 6 1.1z"/>
</symbol>
<symbol viewBox="0 0 24 19" id="medium" xmlns="http://www.w3.org/2000/svg">
	<path d="M2.8 3.9c0-.3-.1-.6-.3-.8L.3.4V0h7l5.4 11.8L17.4 0H24v.4l-1.9 1.8c-.2.1-.2.3-.2.5v13.5c0 .2 0 .4.2.5l1.9 1.8v.5h-9.4v-.4l1.9-1.9c.2-.2.2-.2.2-.5V5.3L11.3 19h-.7L4.3 5.3v9.1c-.1.4.1.8.3 1l2.5 3v.6H0v-.4l2.5-3c.3-.3.4-.7.3-1V3.9z"/>
</symbol>
<symbol viewBox="0 0 10 2" id="minus" xmlns="http://www.w3.org/2000/svg">
	<path d="M0 0v2h10V0z"/>
</symbol>
<symbol viewBox="0 0 16 24" id="pause" xmlns="http://www.w3.org/2000/svg">
	<path d="M0 0h5v24H0zM11 0h5v24h-5z"/>
</symbol>
<symbol viewBox="0 0 16 16" id="phone" xmlns="http://www.w3.org/2000/svg">
	<path d="M11.8 16c-.9 0-3.8-.3-7.7-4C.4 8.5.1 4.7.1 4.2S.2 1.6 2.8.3C3 0 3.9-.2 4.3.2c.1.1 2 3.4 2.1 3.4.2.3.2.4.2.6 0 .3-.1.5-.4.9-.3.3-.6.5-.8.7-.2.1-.4.3-.6.4-.2.1-.2.2-.2.2s.1 1.1 2.1 2.9 3 2.2 3 2.2.1 0 .1-.1c.1-.1.2-.3.4-.5.3-.4.5-.6.6-.7.5-.5 1-.5 1.4-.3 0 0 3.2 1.8 3.4 2 .4.4.1 1.4 0 1.6-.6 2-2.8 2.5-3.8 2.5.1 0 .1 0 0 0zM3.6 1.1c-.1 0-.3 0-.4.1C1.1 2.3 1 3.7 1 4.2c.1.3.4 3.8 3.8 7 3.8 3.6 6.5 3.7 7 3.7 0 0 2.1 0 3-2 .1-.1.1-.3.1-.4-.4-.3-2.9-1.7-3-1.8 0 0-.1 0-.2.1s-.3.4-.5.6c-.2.3-.4.5-.5.6-.2.3-.6.6-1.3.4-.3 0-1.3-.7-3.4-2.4-2.2-2-2.4-3.3-2.4-3.6 0-.4.2-.7.4-.8.2-.2.4-.4.7-.6.3-.2.5-.4.7-.6l.2-.2C5.4 4 4 1.7 3.6 1.1z"/>
</symbol>
<symbol viewBox="0 0 19 21" id="play" xmlns="http://www.w3.org/2000/svg">
	<path d="M0 0l19 10.5L0 21V0z"/>
</symbol>
<symbol viewBox="0 0 15 14" id="play-circle" xmlns="http://www.w3.org/2000/svg">
	<path d="M7.5 0c3.9 0 7 3.1 7 7s-3.1 7-7 7-7-3.1-7-7 3.1-7 7-7zm0 13.2c3.4 0 6.2-2.8 6.2-6.2S10.9.8 7.5.8C4.1.8 1.3 3.6 1.3 7s2.8 6.2 6.2 6.2zm2.3-7.4c.9.6.9 1.5 0 2L7.2 9.3c-.3.2-.5.3-.8.3-.6 0-.9-.4-.9-1.2V5.2c0-.8.4-1.2.9-1.2.2 0 .5.1.8.2l2.6 1.6zm-.4 1.3c.2-.1.3-.3.3-.3 0-.1-.1-.2-.3-.3L6.8 4.9c-.2-.1-.3-.1-.4-.1s-.1.4-.1.4v3.1s0 .4.1.4c0 0 .2 0 .4-.1l2.6-1.5z"/>
</symbol>
<symbol viewBox="0 0 12 12" id="plus" xmlns="http://www.w3.org/2000/svg">
	<path d="M7 5V0H5v5H0v2h5v5h2V7h5V5H7z"/>
</symbol>
<symbol viewBox="0 0 19 19" id="print" xmlns="http://www.w3.org/2000/svg">
	<path d="M15.9 3.9h-.5V2.8c0-1.5-1.3-2.8-2.8-2.8H6.5C5 0 3.7 1.3 3.7 2.8v1.1h-.5C1.7 3.9.4 5.1.4 6.6v4.5c0 1.5 1.3 2.8 2.8 2.8h.4v3.5c0 1 .6 1.6 1.4 1.6h8.9c.8 0 1.4-.6 1.4-1.4V14h.5c1.6 0 2.8-1.2 2.8-2.8V6.7c.1-1.5-1.2-2.8-2.7-2.8zM4.8 2.8c0-.9.8-1.7 1.8-1.7h6c1 0 1.8.8 1.8 1.7v1.1H4.8V2.8zm9.5 14.8c0 .2-.2.3-.3.3H5.1c-.2 0-.3-.2-.3-.3v-5.9h9.5v5.9zm3.3-6.4c0 .9-.8 1.7-1.8 1.7h-.5v-1.2h.8c.3 0 .5-.2.5-.5s-.2-.5-.5-.5H2.9c-.3 0-.5.2-.5.5s.2.5.5.5h.8v1.2h-.5c-1 0-1.8-.8-1.8-1.7V6.7c.1-.9.9-1.7 1.8-1.7h12.6c1 0 1.8.8 1.8 1.7v4.5z"/>
</symbol>
<symbol viewBox="0 0 13 11" id="quote" xmlns="http://www.w3.org/2000/svg">
	<path d="M1.1 10.4l1.7-5.2-2-.3C.4 4.6 0 4 0 3 0 1.3 1.2.1 2.8.1s2.9 1.1 2.9 2.8c0 1.4-.6 2.6-1.4 3.8l-2.7 4.1-.5-.4zm7.5 0l1.7-5.2-2.1-.3c-.4-.3-.8-.9-.8-1.9C7.4 1.3 8.7.1 10.3.1S13 1.3 13 2.9c0 1.4-.6 2.6-1.4 3.8L9 10.8l-.4-.4z"/>
</symbol>
<symbol viewBox="0 0 13 14" id="refresh" xmlns="http://www.w3.org/2000/svg">
	<path d="M2.2 1.9l.9.1C1.5 3.1.5 4.9.5 6.8c0 2.5 1.7 4.7 4.1 5.5l.7.2v-1.4L5 11c-1.9-.6-3.1-2.3-3.1-4.2 0-1.6.9-3.1 2.3-3.8L4 4.3l1.4.3.7-3.4L2.5.5l-.3 1.4zM12.5 6.8c0-2.6-1.8-4.9-4.4-5.6l-.7-.1v1.4l.3.1c2 .5 3.3 2.3 3.3 4.3 0 1.7-1 3.2-2.5 3.9l.2-1-1.3-.3-.7 3.4 3.6.7.3-1.4-1.2-.2c1.9-1.1 3.1-3 3.1-5.2z"/>
</symbol>
<symbol viewBox="0 0 18 17" id="search" xmlns="http://www.w3.org/2000/svg">
	<path d="M17.2 15l-3.5-3.5c.9-1.2 1.3-2.7 1.3-4.1 0-4-3.2-7.3-7.2-7.3S.5 3.2.5 7.2s3.2 7.2 7.2 7.2c1.5 0 3-.4 4.1-1.3l3.5 3.5c.2.2.5.3.8.3s.6-.1.9-.3c.2-.2.3-.5.3-.9.2-.2.1-.5-.1-.7zM13 7.2c0 2.9-2.3 5.2-5.2 5.2s-5.2-2.3-5.2-5.2S4.9 2 7.8 2C10.6 2 13 4.4 13 7.2z"/>
</symbol>
<symbol viewBox="0 0 19 20" id="share" xmlns="http://www.w3.org/2000/svg">
	<path d="M15.3 12.8c-1.2 0-2.2.5-2.9 1.4l-5.4-3c.1-.4.2-.8.2-1.2 0-.4-.1-.8-.2-1.2l5.4-3.1c.7.9 1.7 1.4 2.9 1.4 2 0 3.6-1.6 3.6-3.6S17.3 0 15.3 0s-3.6 1.6-3.6 3.6c0 .4.1.8.2 1.2l-5.4 3C5.8 7 4.8 6.4 3.7 6.4 1.7 6.4.1 8 .1 10s1.6 3.6 3.6 3.6c1.2 0 2.2-.6 2.9-1.4l5.4 3.1c-.1.4-.2.8-.2 1.2 0 2 1.6 3.6 3.6 3.6s3.6-1.6 3.6-3.6-1.7-3.7-3.7-3.7zm0-11.6c1.4 0 2.5 1.1 2.5 2.5s-1.1 2.5-2.5 2.5-2.4-1.2-2.4-2.5 1.1-2.5 2.4-2.5zM3.7 12.5c-1.4 0-2.5-1.1-2.5-2.5s1.1-2.5 2.5-2.5S6.1 8.6 6.1 10c0 1.3-1.1 2.5-2.4 2.5zm11.6 6.3c-1.4 0-2.5-1.1-2.5-2.5s1.1-2.5 2.5-2.5 2.5 1.1 2.5 2.5-1.1 2.5-2.5 2.5z"/>
</symbol>
<symbol viewBox="0 0 12 18" id="sort" xmlns="http://www.w3.org/2000/svg">
	<path d="M6 17.7L.5 12.2l1.4-1.4L6 14.9l4.1-4.1 1.4 1.4zM10.1 7.2L6 3.1 1.9 7.2.5 5.8 6 .3l5.5 5.5z"/>
</symbol>
<symbol viewBox="0 0 24 19" id="telegram" xmlns="http://www.w3.org/2000/svg">
	<path d="M1.1 7.9L22.4.2c1-.4 1.9.2 1.5 1.6l-3.6 16.1c-.3 1.1-1 1.4-2 .9L12.8 15h-.1c-1.2 1.1-2.3 2.2-2.5 2.3-.3.3-.5.5-1.1.5-.6 0-.6-.2-.7-.5 0-.1-.1-.2-.1-.4l-2-5.9L.9 9.5c-1.2-.3-1.2-1.1.2-1.6zm17.8-4.3L7 10.7l2 5.8.4-4 10.2-8.7c.5-.4-.1-.5-.7-.2z"/>
</symbol>
<symbol viewBox="0 0 22 18" id="tune" xmlns="http://www.w3.org/2000/svg">
	<path d="M17.8 2.8C17.4 1.4 16 .3 14.5.3s-2.9 1.1-3.3 2.5H.5v2h10.7c.4 1.4 1.8 2.5 3.3 2.5s2.9-1.1 3.3-2.5h3.7v-2h-3.7zm-3.3 2.5c-.8 0-1.5-.7-1.5-1.5s.7-1.5 1.5-1.5 1.5.6 1.5 1.5-.7 1.5-1.5 1.5zM7.5 10.3c-1.6 0-2.9 1.1-3.3 2.5H.5v2h3.7c.4 1.4 1.8 2.5 3.3 2.5s2.9-1.1 3.3-2.5h10.7v-2H10.8c-.4-1.5-1.7-2.5-3.3-2.5zm0 5c-.8 0-1.5-.7-1.5-1.5s.7-1.5 1.5-1.5 1.5.6 1.5 1.5-.7 1.5-1.5 1.5z"/>
</symbol>
<symbol viewBox="0 0 23 19" id="twitter" xmlns="http://www.w3.org/2000/svg">
	<path d="M14.4.2c-2.1.8-3.4 2.7-3.2 4.9l.1.8-.8-.1c-3-.4-5.7-1.7-7.9-3.9L1.4.8l-.3.8c-.6 1.8-.2 3.7 1 5 .7.7.5.8-.6.4-.4-.2-.8-.3-.8-.2-.1.1.3 1.6.6 2.2.4.8 1.3 1.7 2.3 2.1l.8.4h-1c-.9 0-1 0-.9.4.3 1.1 1.6 2.2 3.1 2.8l1 .4-.9.5c-1.3.8-2.9 1.2-4.5 1.2-.7 0-1.4.1-1.4.1 0 .2 2 1.1 3.2 1.5 3.5 1.1 7.7.6 10.9-1.2 2.2-1.3 4.5-4 5.5-6.5.6-1.4 1.1-3.8 1.1-5 0-.8 0-.9 1-1.8.5-.5 1.1-1.1 1.2-1.3.2-.3.1-.3-.7 0-1.2.4-1.4.4-.7-.4.5-.5 1.1-1.5 1.1-1.8 0 0-.2 0-.5.2s-1 .4-1.5.6l-.9.3-.8-.6c-.4-.3-1.1-.6-1.4-.7-.8-.3-2.1-.2-2.9 0z"/>
</symbol>
<symbol viewBox="0 0 44 28" id="upload" xmlns="http://www.w3.org/2000/svg">
	<path d="M38.1 14.6c0-.3.1-.6.1-.9 0-4.6-3.7-8.3-8.3-8.3-.8 0-1.5.1-2.2.3C26.2 2.4 22.9 0 19.1 0c-4.9 0-8.9 3.8-9.1 8.6h-.2C4.3 8.6 0 13 0 18.3 0 23.6 4.3 28 9.6 28h10.3v-8.8h-3.7l5.9-5.9 5.6 6-3.4-.1V28h13.1c3.6-.1 6.6-3.1 6.6-6.7 0-3.4-2.6-6.3-5.9-6.7z"/>
</symbol>
<symbol viewBox="0 0 17 19" id="user" xmlns="http://www.w3.org/2000/svg">
	<path d="M12.1 10.3c1.4-1.2 2.2-2.7 2.2-4.5 0-3.1-2.6-5.8-5.8-5.8S2.7 2.6 2.7 5.8c0 1.8.8 3.4 2.2 4.5C2 11.7.1 14.6.1 18c0 .5.4 1 1 1 .5 0 1-.4 1-1 0-3.5 2.8-6.3 6.3-6.3s6.3 2.8 6.3 6.3c0 .5.4 1 1 1s1-.4 1-1c.2-3.4-1.7-6.3-4.6-7.7zm.1-4.5c0 2-1.7 3.7-3.7 3.7S4.8 7.8 4.8 5.8s1.7-3.7 3.7-3.7 3.7 1.6 3.7 3.7z"/>
</symbol>
<symbol viewBox="0 0 24 16" id="video" xmlns="http://www.w3.org/2000/svg">
	<path d="M24 3.9c.1-1-.4-1.8-1.3-2.3-.9-.4-1.8-.2-2.5.3l-1.6 1.4v-.7c0-1.3-1.5-2.4-2.7-2.4H2.7C1.5.2 0 1.3 0 2.6v10.8c0 1.3 1.5 2.4 2.7 2.4H16c1.2 0 2.7-1.1 2.7-2.4v-.3l1.5 1.2c.4.3 1 .5 1.5.5h.1c.3 0 .6-.1 1.1-.2.9-.5 1.3-1.4 1.2-2.3V3.9zm-7 9.6c0 .2-.5.8-1.1.8H2.7c-.5 0-1.1-.5-1.1-.8V2.6c0-.2.5-.8 1.1-.8H16c.5 0 1.1.5 1.1.8V10.4c-.1 1-.1 2-.1 3.1zm5.2-.3c-.1 0-.2.1-.3.1-.2 0-.4-.1-.5-.2l-2.6-1.9V5.4l2.6-2.3c.2-.2.5-.2.8-.1.2.1.4.4.3.8v8.7c0 .3-.2.6-.3.7z"/>
</symbol>
<symbol viewBox="0 0 33 20" id="video-bold" xmlns="http://www.w3.org/2000/svg">
	<path d="M31.1 1.7c-.8-.4-1.8-.2-2.4.3l-4.2 3.6V2.2C24.6 1.1 23 0 21.9 0H2.7C1.6 0 0 1.1 0 2.2v15.6C0 18.9 1.6 20 2.7 20h19.1c1.2 0 2.7-1.1 2.7-2.2V15l4.2 3.1c.5.4 1 .6 1.5.6.4 0 .7-.1.9-.2.7-.3 1.1-1.2 1.1-2.2V3.9c.1-1.4-.6-2-1.1-2.2zm-8 16c-.1.2-.7.8-1.2.8H2.7c-.5 0-1.2-.5-1.2-.7V2.3c.1-.3.7-.8 1.2-.8h19.1c.5 0 1.2.5 1.2.7V13.8l.1 3.9zm7.7-1.5c0 .5-.2.8-.3.9 0 0-.4.1-.8-.2l-5.1-3.7V7.6l5.2-4.4c.2-.2.5-.2.7-.1.1 0 .3.1.3.7v12.4z"/>
</symbol>
<symbol viewBox="0 0 18 14" id="vimeo" xmlns="http://www.w3.org/2000/svg">
	<path d="M15.2 0c1.7 0 2.5 1 2.5 2.8v.4c-.1 1.6-1.2 3.8-3.6 6.5-2.3 2.8-4.4 4.3-6 4.3-1 0-1.8-.9-2.5-2.6L4.8 9l-.7-2.4C3.6 4.9 3 4.1 2.5 4.1c-.2 0-.6.2-1.4.7l-.8-1 1.3-1.1 1.2-1C3.9.8 4.8.3 5.3.3h.2c1.2 0 1.9.9 2.2 2.6.2 1 .3 1.8.4 2.4.1.6.2 1 .3 1.3C9 8.2 9.4 9 9.9 9c.4 0 .9-.5 1.6-1.6.7-1.1 1.1-1.9 1.1-2.4v-.3c0-.7-.4-1.1-1.2-1.1-.4 0-.8.1-1.3.2C11 1.3 12.7 0 15 0h.2z"/>
</symbol>
<symbol viewBox="0 0 19 13" id="youtube" xmlns="http://www.w3.org/2000/svg">
	<path d="M18.6 5c0-.4 0-.8-.1-1.4s-.1-1.1-.2-1.5c-.1-.5-.3-.9-.7-1.2-.4-.3-.8-.5-1.3-.6C14.8.1 12.5 0 9.5 0S4.2.1 2.7.3c-.5 0-.9.2-1.3.6-.3.3-.6.7-.7 1.2-.1.4-.1.9-.2 1.5 0 .6-.1 1-.1 1.4v3c0 .4 0 .8.1 1.4.1.6.1 1.1.2 1.5.1.5.3.9.7 1.2s.8.5 1.3.6c1.5.2 3.8.3 6.8.3s5.3-.1 6.8-.3c.5-.1.9-.3 1.3-.6s.6-.8.7-1.2.2-.9.2-1.5c.1-.6.1-1 .1-1.4V6.5 5zm-5.5 2l-5.2 3.2c-.1.1-.2.1-.3.1-.1 0-.2 0-.3-.1-.3 0-.4-.2-.4-.5V3.3c0-.3.1-.4.3-.6.2-.1.4-.1.7 0L13.1 6c.2.1.3.3.3.5 0 .3-.1.4-.3.5z"/>
</symbol>
</svg>
